General

Format                           : MPEG-4
Format profile                   : Base Media
Codec ID                         : isom
File size                        : 123 MiB
Duration                         : 3mn 41s
Overall bit rate                 : 4 673 Kbps
Encoded date                     : UTC 2012-05-26 18:31:23
Tagged date                      : UTC 2012-05-26 18:31:23

Video
ID                               : 1
Format                           : AVC
Format/Info                      : Advanced Video Codec
Format profile                   : High@L3.0
Format settings, CABAC           : Yes
Format settings, ReFrames        : 2 frames
Codec ID                         : avc1
Codec ID/Info                    : Advanced Video Coding
Duration                         : 3mn 41s
Bit rate mode                    : Variable
Bit rate                         : 4 565 Kbps
Maximum bit rate                 : 8 499 Kbps
Width                            : 720 pixels
Height                           : 576 pixels
Display aspect ratio             : 4:3
Original display aspect ratio    : 4:3
Frame rate mode                  : Constant
Frame rate                       : 25.000 fps
Standard                         : PAL
Color space                      : YUV
Chroma subsampling               : 4:2:0
Bit depth                        : 8 bits
Scan type                        : Progressive
Bits/(Pixel*Frame)               : 0.440
Stream size                      : 121 MiB (98%)


Audio
ID                               : 2
Format                           : AAC
Format/Info                      : Advanced Audio Codec
Format profile                   : LC
Codec ID                         : 40
Duration                         : 3mn 41s
Bit rate mode                    : Variable
Bit rate                         : 76.8 Kbps
Maximum bit rate                 : 85.0 Kbps
Channel(s)                       : 2 channels
Channel positions                : Front: L R
Sampling rate                    : 48.0 KHz
Compression mode                 : Lossy
Stream size                      : 2.03 MiB (2%)